<svg width="89" height="18" viewBox="0 0 89 18" fill="none" xmlns="http://www.w3.org/2000/svg">
<path fill-rule="evenodd" clip-rule="evenodd" d="M62.0025 5.02632C61.4472 5.02632 61 5.49554 61 6.07901V12.921C61 13.5019 61.4491 13.9737 62.0025 13.9737H81.4975C82.0528 13.9737 82.5 13.5045 82.5 12.921V6.07901C82.5 5.49811 82.0509 5.02632 81.4975 5.02632H62.0025ZM62.0025 4.5H81.4975C82.3266 4.5 83 5.20695 83 6.07901V12.921C83 13.7968 82.3273 14.5 81.4975 14.5H62.0025C61.1734 14.5 60.5 13.7931 60.5 12.921V6.07901C60.5 5.20318 61.1727 4.5 62.0025 4.5Z" fill="black"/>
<path fill-rule="evenodd" clip-rule="evenodd" d="M62 5.5C61.7239 5.5 61.5 5.72386 61.5 6V13C61.5 13.2761 61.7239 13.5 62 13.5H70.5V5.5H62Z" fill="black"/>
<path fill-rule="evenodd" clip-rule="evenodd" d="M85 9.73228C85 10.6139 84.3481 11.3432 83.5 11.4646V8C84.3481 8.12131 85 8.85066 85 9.73228Z" fill="black"/>
<path d="M34.4668 10.5293V6.72656L31.7773 10.5293H34.4668ZM34.4844 13.5V11.4492H30.8047V10.418L34.6484 5.08594H35.5391V10.5293H36.7754V11.4492H35.5391V13.5H34.4844ZM37.5547 13.5C37.5938 12.7773 37.7422 12.1484 38 11.6133C38.2617 11.0781 38.7695 10.5918 39.5234 10.1543L40.6484 9.50391C41.1523 9.21094 41.5059 8.96094 41.709 8.75391C42.0293 8.42969 42.1895 8.05859 42.1895 7.64062C42.1895 7.15234 42.043 6.76562 41.75 6.48047C41.457 6.19141 41.0664 6.04688 40.5781 6.04688C39.8555 6.04688 39.3555 6.32031 39.0781 6.86719C38.9297 7.16016 38.8477 7.56641 38.832 8.08594H37.7598C37.7715 7.35547 37.9062 6.75977 38.1641 6.29883C38.6211 5.48633 39.4277 5.08008 40.584 5.08008C41.5449 5.08008 42.2461 5.33984 42.6875 5.85938C43.1328 6.37891 43.3555 6.95703 43.3555 7.59375C43.3555 8.26562 43.1191 8.83984 42.6465 9.31641C42.373 9.59375 41.8828 9.92969 41.1758 10.3242L40.373 10.7695C39.9902 10.9805 39.6895 11.1816 39.4707 11.373C39.0801 11.7129 38.834 12.0898 38.7324 12.5039H43.3145V13.5H37.5547ZM52.0391 9.42188C52.6016 9.42188 53.082 9.62109 53.4805 10.0195C53.8789 10.418 54.0781 10.8984 54.0781 11.4609C54.0781 12.0234 53.8789 12.5039 53.4805 12.9023C53.082 13.3008 52.6016 13.5 52.0391 13.5C51.4727 13.5 50.9902 13.3008 50.5918 12.9023C50.1934 12.5039 49.9941 12.0234 49.9941 11.4609C49.9941 10.8984 50.1934 10.418 50.5918 10.0195C50.9902 9.62109 51.4727 9.42188 52.0391 9.42188ZM51.1895 5.14453H51.8398L47.1465 13.7227H46.4961L51.1895 5.14453ZM46.2852 8.61328C46.6211 8.61328 46.9062 8.49609 47.1406 8.26172C47.3789 8.02344 47.498 7.73828 47.498 7.40625C47.498 7.07422 47.3789 6.79102 47.1406 6.55664C46.9062 6.31836 46.6211 6.19922 46.2852 6.19922C45.9531 6.19922 45.668 6.31641 45.4297 6.55078C45.1953 6.78516 45.0781 7.07031 45.0781 7.40625C45.0781 7.73828 45.1953 8.02344 45.4297 8.26172C45.668 8.49609 45.9531 8.61328 46.2852 8.61328ZM46.2852 5.36133C46.8516 5.36133 47.334 5.5625 47.7324 5.96484C48.1309 6.36328 48.3301 6.84375 48.3301 7.40625C48.3301 7.96875 48.1309 8.44922 47.7324 8.84766C47.334 9.24609 46.8516 9.44531 46.2852 9.44531C45.7227 9.44531 45.2422 9.24609 44.8438 8.84766C44.4453 8.44922 44.2461 7.96875 44.2461 7.40625C44.2461 6.84375 44.4453 6.36328 44.8438 5.96484C45.2422 5.5625 45.7227 5.36133 46.2852 5.36133ZM52.0391 12.668C52.3711 12.668 52.6543 12.5508 52.8887 12.3164C53.127 12.0781 53.2461 11.793 53.2461 11.4609C53.2461 11.1289 53.127 10.8457 52.8887 10.6113C52.6543 10.373 52.3711 10.2539 52.0391 10.2539C51.7031 10.2539 51.416 10.373 51.1777 10.6113C50.9434 10.8457 50.8262 11.1289 50.8262 11.4609C50.8262 11.793 50.9434 12.0781 51.1777 12.3164C51.416 12.5508 51.7031 12.668 52.0391 12.668Z" fill="black"/>
<path d="M20.5 7L25.5 12L23.3571 14.5V4.5L25.5 7L20.5 12" stroke="white" stroke-linecap="square"/>
</svg>
